<svg xmlns="http://www.w3.org/2000/svg" version="1.1" width="1080px" height="1080px" style="shape-rendering:geometricPrecision; text-rendering:geometricPrecision; image-rendering:optimizeQuality; fill-rule:evenodd; clip-rule:evenodd" xmlns:xlink="http://www.w3.org/1999/xlink">
    <g><path style="opacity:1" fill="#538fdd" d="M 517.5,446.5 C 494.923,469.578 472.089,492.578 449,515.5C 420.196,549.547 415.863,586.547 436,626.5C 439.414,631.066 442.58,635.732 445.5,640.5C 420.535,616.035 395.701,591.368 371,566.5C 344.487,529.992 342.821,492.326 366,453.5C 388.17,423.429 418.004,409.929 455.5,413C 480.683,416.087 501.35,427.254 517.5,446.5 Z"/></g>
    <g><path style="opacity:1" fill="#78ebfe" d="M 592.5,638.5 C 601.352,625.448 607.519,611.115 611,595.5C 615.273,565.577 607.606,539.243 588,516.5C 564.632,493.299 541.465,469.965 518.5,446.5C 542.815,419.336 573.149,408.502 609.5,414C 648.788,423.288 673.621,447.454 684,486.5C 689.606,516.074 683.272,542.741 665,566.5C 640.965,590.702 616.799,614.702 592.5,638.5 Z"/></g>
    <g><path style="opacity:1" fill="#44c9f5" d="M 517.5,446.5 C 517.833,446.5 518.167,446.5 518.5,446.5C 541.465,469.965 564.632,493.299 588,516.5C 607.606,539.243 615.273,565.577 611,595.5C 607.519,611.115 601.352,625.448 592.5,638.5C 568.628,666.63 538.295,678.13 501.5,673C 478.723,669.017 460.056,658.183 445.5,640.5C 442.58,635.732 439.414,631.066 436,626.5C 415.863,586.547 420.196,549.547 449,515.5C 472.089,492.578 494.923,469.578 517.5,446.5 Z"/></g>
</svg>
